<?xml version="1.0" standalone="no"?>
<!DOCTYPE svg PUBLIC "-//W3C//DTD SVG 20010904//EN"
 "http://www.w3.org/TR/2001/REC-SVG-20010904/DTD/svg10.dtd">
<svg version="1.0" xmlns="http://www.w3.org/2000/svg"
 width="600.000000pt" height="400.000000pt" viewBox="0 0 600.000000 400.000000"
 preserveAspectRatio="xMidYMid meet">

<g transform="translate(0.000000,400.000000) scale(0.100000,-0.100000)"
fill="#000000" stroke="none">
<path d="M0 2000 l0 -2000 3000 0 3000 0 0 2000 0 2000 -3000 0 -3000 0 0
-2000z m2068 1705 l-4 -64 65 -28 64 -27 -61 -16 c-33 -8 -64 -19 -69 -23 -4
-5 -10 -39 -13 -75 l-5 -67 -38 63 c-21 34 -39 62 -40 62 -1 0 -27 -7 -57 -15
-81 -22 -88 -20 -54 18 73 79 70 69 31 134 -20 32 -34 59 -33 60 1 2 31 -9 65
-24 l62 -27 40 47 c23 26 43 47 46 47 3 0 3 -29 1 -65z m-713 -517 l220 -3
-177 -128 c-98 -70 -175 -133 -173 -140 72 -219 126 -389 123 -392 -1 -2 -81
53 -175 122 l-173 124 -172 -124 c-95 -69 -175 -124 -177 -122 -2 3 98 314
126 391 2 7 -77 71 -178 143 l-181 131 225 0 225 0 68 203 68 202 65 -202 66
-202 220 -3z m1115 112 c30 16 59 29 63 30 5 0 -6 -27 -24 -60 l-32 -61 49
-51 49 -50 -40 5 c-22 4 -54 9 -72 13 -31 6 -33 4 -65 -57 l-32 -64 -10 72 -9
72 -72 12 -73 13 65 30 65 30 -7 66 -7 65 49 -47 48 -46 55 28z m-49 -575 l23
-65 65 0 66 -1 -23 -19 c-13 -11 -35 -28 -50 -39 l-27 -19 23 -63 c12 -34 21
-63 19 -65 -2 -2 -26 12 -55 31 -28 19 -54 35 -58 35 -4 0 -31 -18 -61 -40
-29 -23 -53 -37 -53 -33 0 4 9 35 19 68 l19 60 -66 43 -65 42 79 0 79 0 19 65
c10 36 20 65 21 65 2 0 13 -29 26 -65z m-288 -516 l61 -23 -64 -16 -65 -16 -5
-74 -5 -75 -35 54 c-19 30 -38 58 -41 63 -3 5 -32 3 -66 -6 -34 -9 -64 -16
-68 -16 -4 0 12 22 34 49 23 27 41 52 41 55 0 4 -16 30 -35 58 -19 29 -33 53
-31 55 1 2 29 -8 62 -22 l59 -25 45 51 45 50 3 -69 3 -70 62 -23z"/>
</g>
</svg>
